<svg width="1080" height="1080" viewBox="0 0 1080 1080" fill="none" xmlns="http://www.w3.org/2000/svg">
<g clip-path="url(#clip0_4_2)">
<rect width="1080" height="1080" fill="url(#paint0_linear_4_2)"/>
<path d="M393.968 344.098C382.645 359.755 312.954 457.855 343.459 501.038C366.903 534.231 427.56 503.884 521.409 545.892C577.077 570.814 611.396 606.525 618.759 614.179C688.789 686.897 694.105 775.455 712.669 772.827C722.526 771.434 724.766 745.919 730.543 718.709C740.509 671.675 762.5 632.428 806.47 553.945C945.089 306.558 1019.19 174.672 1143.2 87.3372C1194.05 51.5291 1233.35 37.2639 1631.46 -22.0975C1697.69 -31.9668 1950.94 -73.7571 2252.01 -133.942C2325.43 -148.619 2362.63 -156.647 2362.05 -162.799C2360.32 -181.327 2018.15 -171.954 1681.97 -133.942C1608.79 -125.659 1521.12 -115.753 1405.97 -96.063C1136.92 -50.0586 610.028 45.3895 393.968 344.098Z" fill="#FFF085" fill-opacity="0.7"/>
<path d="M462.763 397.089C419.556 439.921 352.105 515.073 364.106 531.433C368.09 536.871 378.407 532.523 433.76 520.45C509.833 503.86 520.174 505.398 528.663 510.06C553.779 523.853 557.472 562.059 561.129 605.665C567.584 682.598 550.945 734.1 555.716 735.553C565.477 738.508 610.403 516.054 736.113 356.728C819.234 251.374 881.84 202.863 881.84 202.863C920.615 173.63 946.529 166.243 942.389 150.792C936.957 130.52 864.427 158.251 800.706 181.066C725.433 208.009 670.406 238.95 628.216 265.978C542.044 321.174 487.309 372.761 462.775 397.077L462.763 397.089Z" fill="#FEFCE8" fill-opacity="0.71"/>
<mask id="mask0_4_2" style="mask-type:luminance" maskUnits="userSpaceOnUse" x="335" y="-172" width="2028" height="945">
<path d="M393.968 344.098C382.645 359.755 312.954 457.855 343.459 501.038C366.903 534.231 427.56 503.884 521.409 545.892C577.077 570.814 611.396 606.525 618.759 614.179C688.789 686.897 694.105 775.455 712.669 772.827C722.526 771.434 724.766 745.919 730.543 718.709C740.509 671.675 762.5 632.428 806.47 553.945C945.089 306.558 1019.19 174.672 1143.2 87.3372C1194.05 51.5291 1233.35 37.2639 1631.46 -22.0975C1697.69 -31.9668 1950.94 -73.7571 2252.01 -133.942C2325.43 -148.619 2362.63 -156.647 2362.05 -162.799C2360.32 -181.327 2018.15 -171.954 1681.97 -133.942C1608.79 -125.659 1521.12 -115.753 1405.97 -96.063C1136.92 -50.0586 610.028 45.3895 393.968 344.098Z" fill="white"/>
</mask>
<g mask="url(#mask0_4_2)">
<path d="M732.226 70.965C734.515 75.2034 633.23 120.808 569.642 233.319C560.063 250.26 520.368 306.376 544.987 341.155C554.275 349.995 561.214 352.338 585.155 349.995C649.868 343.662 693.1 321.477 738.002 306.376C806.409 283.38 857.428 270.677 864.887 290.658C872.346 310.639 838.851 349.995 826.742 369.37C815.281 387.707 790.587 442.634 783.752 462.614C771.326 498.943 758.528 521.491 770.468 575.161C771.655 580.49 789.214 655.048 843.525 687.902C949 751.72 1124.43 616.77 1130.35 626.567C1138.6 640.238 853.613 996.6 538.666 907.074C333.722 848.815 169.407 616.818 208.242 420.739C264.116 138.743 726.728 60.8414 732.202 70.965H732.226Z" fill="#3F5DBC" fill-opacity="0.6"/>
</g>
<path d="M393.968 344.098C382.645 359.755 312.954 457.855 343.459 501.038C366.903 534.231 427.56 503.884 521.409 545.892C577.077 570.814 611.396 606.525 618.759 614.179C688.789 686.897 694.105 775.455 712.669 772.827C722.526 771.434 724.766 745.919 730.543 718.709C740.509 671.675 762.5 632.428 806.47 553.945C945.089 306.558 1019.19 174.672 1143.2 87.3372C1194.05 51.5291 1233.35 37.2639 1631.46 -22.0975C1697.69 -31.9668 1950.94 -73.7571 2252.01 -133.942C2325.43 -148.619 2362.63 -156.647 2362.05 -162.799C2360.32 -181.327 2018.15 -171.954 1681.97 -133.942C1608.79 -125.659 1521.12 -115.753 1405.97 -96.063C1136.92 -50.0586 610.028 45.3895 393.968 344.098Z" fill="url(#paint1_radial_4_2)"/>
<path d="M404.358 274.491L520.271 405.481C527.743 413.922 539.223 417.603 550.206 415.096L720.71 376.067C750.233 369.31 773.52 401.134 758.153 427.23L669.389 577.959C663.673 587.671 663.71 599.732 669.498 609.395L759.303 759.494C774.852 785.481 751.783 817.463 722.211 810.911L551.441 773.069C540.434 770.635 528.978 774.401 521.579 782.89L406.574 914.691C386.666 937.505 349.114 925.456 346.207 895.303L329.424 721.191C328.346 709.978 321.225 700.242 310.859 695.822L149.971 627.172C122.119 615.293 121.974 575.852 149.753 563.766L310.157 494.003C320.487 489.51 327.547 479.725 328.552 468.5L344.125 294.279C346.825 264.113 384.28 251.798 404.358 274.479V274.491Z" fill="url(#paint2_radial_4_2)"/>
<path d="M505.909 465.327C505.425 467.676 501.55 484.993 487.466 491.157C474.315 496.921 460.51 489.365 458.403 488.166C445.809 481.021 440.481 468.718 434.947 451.486C425.841 423.113 414.627 395.467 404.879 367.3C391.159 327.653 383.965 314.853 387.441 312.576C390.892 310.324 400.871 321.065 440.953 365.471C498.087 428.756 509.893 446.073 505.897 465.303L505.909 465.327Z" fill="#ECFCCA" fill-opacity="0.8"/>
<path d="M589.308 551.548C589.284 553.873 589.381 571.032 601.345 578.903C612.511 586.254 627.018 580.901 629.246 580.041C642.53 574.919 650.038 563.839 658.757 548.048C673.107 522.048 689.286 497.03 704.192 471.333C725.178 435.15 734.551 423.827 731.742 421.175C728.957 418.535 717.392 427.484 670.685 464.6C604.106 517.507 589.478 532.511 589.308 551.535V551.548Z" fill="#FF8904" fill-opacity="0.6"/>
</g>
<defs>
<linearGradient id="paint0_linear_4_2" x1="423.033" y1="1080" x2="656.967" y2="-6.65296e-06" gradientUnits="userSpaceOnUse">
<stop stop-color="#1447E6"/>
<stop offset="1" stop-color="#312C85"/>
</linearGradient>
<radialGradient id="paint1_radial_4_2" cx="0" cy="0" r="1" gradientUnits="userSpaceOnUse" gradientTransform="translate(519.763 388.746) rotate(-25.996) scale(518.027 518.027)">
<stop stop-color="#0B0A1F" stop-opacity="0"/>
<stop offset="0.57269" stop-color="#1E1B52" stop-opacity="0"/>
<stop offset="1" stop-color="#3F5DBC" stop-opacity="0.6"/>
</radialGradient>
<radialGradient id="paint2_radial_4_2" cx="0" cy="0" r="1" gradientUnits="userSpaceOnUse" gradientTransform="translate(446.657 594.682) rotate(4.79093) scale(825.576 825.576)">
<stop offset="0.06" stop-color="#FFDF20"/>
<stop offset="0.874006" stop-color="#FF8904"/>
</radialGradient>
<clipPath id="clip0_4_2">
<rect width="1080" height="1080" fill="white"/>
</clipPath>
</defs>
</svg>
