<svg width="1080" height="1080" viewBox="0 0 1080 1080" fill="none" xmlns="http://www.w3.org/2000/svg">
<path d="M463.2 306.15L558.92 414.32C565.09 421.29 574.57 424.33 583.64 422.26L724.44 390.03C748.82 384.45 768.05 410.73 755.36 432.28L682.06 556.75C677.34 564.77 677.37 574.73 682.15 582.71L756.31 706.66C769.15 728.12 750.1 754.53 725.68 749.12L584.66 717.87C575.57 715.86 566.11 718.97 560 725.98L465.03 834.82C448.59 853.66 417.58 843.71 415.18 818.81L401.32 675.03C400.43 665.77 394.55 657.73 385.99 654.08L253.13 597.39C230.13 587.58 230.01 555.01 252.95 545.03L385.41 487.42C393.94 483.71 399.77 475.63 400.6 466.36L413.46 322.49C415.69 297.58 446.62 287.41 463.2 306.14V306.15Z" fill="url(#paint0_radial_1_2)"/>
<path d="M547.06 463.74C546.66 465.68 543.46 479.98 531.83 485.07C520.97 489.83 509.57 483.59 507.83 482.6C497.43 476.7 493.03 466.54 488.46 452.31C480.94 428.88 471.68 406.05 463.63 382.79C452.3 350.05 446.36 339.48 449.23 337.6C452.08 335.74 460.32 344.61 493.42 381.28C540.6 433.54 550.35 447.84 547.05 463.72L547.06 463.74Z" fill="#ECFCCA" fill-opacity="0.8"/>
<path d="M615.93 534.94C615.91 536.86 615.99 551.03 625.87 557.53C635.09 563.6 647.07 559.18 648.91 558.47C659.88 554.24 666.08 545.09 673.28 532.05C685.13 510.58 698.49 489.92 710.8 468.7C728.13 438.82 735.87 429.47 733.55 427.28C731.25 425.1 721.7 432.49 683.13 463.14C628.15 506.83 616.07 519.22 615.93 534.93V534.94Z" fill="#FF8904" fill-opacity="0.6"/>
<defs>
<radialGradient id="paint0_radial_1_2" cx="0" cy="0" r="1" gradientUnits="userSpaceOnUse" gradientTransform="translate(498.13 570.56) rotate(4.79093) scale(681.752 681.752)">
<stop offset="0.06" stop-color="#FFDF20"/>
<stop offset="0.874006" stop-color="#FF8904"/>
</radialGradient>
</defs>
</svg>
