<?xml version="1.0" encoding="utf-8"?>
<svg version="1.0" xmlns="http://www.w3.org/2000/svg" width="512px" height="512px" viewBox="94.81 75.50 325.13 355.42">
    <path d="M249.70 427 c-46.35 -13.75 -85.10 -40.75 -112.55 -78.40 -20.15 -27.60 -34 -63.45 -38.65 -99.80 -6.50 -50.75 5.75 -101.30 36.15 -149.05 3.85 -6.05 11.40 -16.85 13 -18.65 1.35 -1.45 2.45 -1.40 8.55 0.35 25.05 7.30 45 9.60 60.10 7.05 9.10 -1.55 21.35 -4.75 30.85 -8.05 4.75 -1.60 9.45 -2.95 10.45 -2.95 1 0 3.45 0.55 5.40 1.30 6.70 2.40 19.30 6.10 26 7.65 22.40 5.05 40 3.90 68.25 -4.50 l8.50 -2.55 1.60 1.90 c6.25 7.15 19.10 28.10 26.40 42.95 13 26.35 20.70 52.40 23.55 79.75 1.10 10.85 0.75 35 -0.75 45.75 -3.55 25.95 -9.90 47.05 -20.80 69.20 -10.80 21.95 -23.60 39.60 -41.05 56.55 -8.90 8.60 -24.85 22 -26.25 22 -0.65 0 -3.60 2.15 -5.95 4.30 -0.95 0.85 -2.35 1.70 -3.05 1.90 -0.75 0.15 -3.65 1.70 -6.50 3.40 -2.85 1.70 -9.10 4.90 -13.80 7.15 -4.75 2.25 -9.05 4.45 -9.55 4.90 -0.50 0.50 -1.35 0.85 -1.90 0.85 -0.50 0.05 -1.85 0.45 -2.95 1 -1.10 0.55 -2.20 0.95 -2.50 1 -0.45 0 -6.10 2 -8.50 3 -0.55 0.20 -2.70 0.90 -4.75 1.50 -2.05 0.60 -4.85 1.40 -6.20 1.80 -3.60 1.05 -5.90 0.85 -13.10 -1.30z m17.80 -20.80 c18.80 -6.45 35.30 -14.80 50.50 -25.60 45.80 -32.60 73.75 -81.10 80.05 -139.10 0.80 -7.40 0.80 -28.10 0 -35.50 -0.65 -6.20 -2.15 -16.15 -3.05 -20.35 l-0.60 -2.65 -136.55 0 c-75.15 0 -136.85 0.20 -137.15 0.40 -0.55 0.35 -2.15 8.95 -3.20 17.35 -4.35 34.70 2.25 73.35 18.25 107.10 18.70 39.30 49.65 70.25 89.05 88.95 11.55 5.45 29.45 12.15 32.80 12.15 1 0.05 5.45 -1.20 9.90 -2.75z m119 -249.20 c0 -1.85 -7.05 -18.15 -12 -27.75 -6.30 -12.20 -15.55 -27.25 -16.75 -27.25 -0.35 0 -3.20 0.65 -6.30 1.50 -11.15 2.90 -23.20 4.85 -33.20 5.30 -14.40 0.70 -33.10 -2.40 -52.25 -8.55 -8.45 -2.75 -8.50 -2.75 -17.90 0.30 -20.45 6.55 -38.30 9.20 -53.80 8.05 -9.10 -0.70 -20.65 -2.60 -29.80 -4.90 -3.70 -0.95 -7.05 -1.70 -7.40 -1.70 -0.70 0 -5.95 7.85 -11.30 16.90 -6 10.10 -15.05 29.50 -17.50 37.50 l-0.35 1.10 129.25 0 c89 0 129.30 -0.15 129.30 -0.50z"/>
</svg>