<svg width="1080" height="1080" viewBox="0 0 1080 1080" fill="none" xmlns="http://www.w3.org/2000/svg">
<path d="M647 637.771C641.951 713.606 723.828 773.366 716.5 719.27C699.5 593.77 709 374.449 835.5 324.77C914.5 293.746 995.75 433.771 968.5 324.77C917.932 122.5 608 163.261 482.5 259.771C434.548 296.645 384.84 340.974 413.5 387.27C471.808 481.461 584.388 365.591 655.5 433.771C695.5 495.271 655.634 508.106 647 637.771Z" fill="white"/>
<path d="M283.647 393.705C285.877 368.795 316.808 358.625 333.388 377.354V377.365L429.107 485.535C435.277 492.505 444.758 495.544 453.828 493.474L594.628 461.245C619.008 455.665 638.238 481.945 625.548 503.495L552.248 627.965C547.528 635.985 547.558 645.945 552.338 653.925L626.498 777.875C639.337 799.335 620.288 825.744 595.868 820.335L454.848 789.085C445.758 787.075 436.297 790.184 430.187 797.194L335.218 906.035C318.778 924.875 287.768 914.924 285.368 890.024L271.508 746.245C270.618 736.985 264.738 728.945 256.178 725.295L123.317 668.604C100.318 658.794 100.198 626.225 123.138 616.245L255.598 558.635C264.127 554.925 269.958 546.845 270.788 537.575L283.647 393.705ZM414.5 533.719C403.5 512.719 336 404.719 319.698 416.592C316.632 418.825 322.689 428.448 333.726 459.628C341.568 481.779 350.588 503.522 357.914 525.835C362.366 539.386 366.653 549.062 376.784 554.68C378.48 555.624 389.585 561.566 400.164 557.033C411.493 552.186 418 543.218 414.5 533.719Z" fill="white"/>
</svg>
