<svg width="1080" height="1080" viewBox="0 0 1080 1080" fill="none" xmlns="http://www.w3.org/2000/svg">
<g clip-path="url(#clip0_1_2)">
<path d="M454.62 363.63C445.27 376.56 387.72 457.57 412.91 493.23C432.27 520.64 482.36 495.58 559.86 530.27C605.83 550.85 634.17 580.34 640.25 586.66C698.08 646.71 702.47 719.84 717.8 717.67C725.94 716.52 727.79 695.45 732.56 672.98C740.79 634.14 758.95 601.73 795.26 536.92C909.73 332.63 970.92 223.72 1073.33 151.6C1115.32 122.03 1147.77 110.25 1476.53 61.23C1531.22 53.08 1740.35 18.57 1988.97 -31.13C2049.6 -43.25 2080.32 -49.88 2079.84 -54.96C2078.41 -70.26 1795.85 -62.52 1518.24 -31.13C1457.81 -24.29 1385.41 -16.11 1290.32 0.150009C1068.14 38.14 633.04 116.96 454.62 363.63Z" fill="#FFF085" fill-opacity="0.7"/>
<path d="M511.43 407.39C475.75 442.76 420.05 504.82 429.96 518.33C433.25 522.82 441.77 519.23 487.48 509.26C550.3 495.56 558.84 496.83 565.85 500.68C586.59 512.07 589.64 543.62 592.66 579.63C597.99 643.16 584.25 685.69 588.19 686.89C596.25 689.33 633.35 505.63 737.16 374.06C805.8 287.06 857.5 247 857.5 247C889.52 222.86 910.919 216.76 907.5 204C903.015 187.26 843.12 210.16 790.5 229C728.34 251.25 682.9 276.8 648.06 299.12C576.9 344.7 531.7 387.3 511.44 407.38L511.43 407.39Z" fill="#FEFCE8" fill-opacity="0.71"/>
<mask id="mask0_1_2" style="mask-type:luminance" maskUnits="userSpaceOnUse" x="406" y="-63" width="1674" height="781">
<path d="M454.62 363.63C445.27 376.56 387.72 457.57 412.91 493.23C432.27 520.64 482.36 495.58 559.86 530.27C605.83 550.85 634.17 580.34 640.25 586.66C698.08 646.71 702.47 719.84 717.8 717.67C725.94 716.52 727.79 695.45 732.56 672.98C740.79 634.14 758.95 601.73 795.26 536.92C909.73 332.63 970.92 223.72 1073.33 151.6C1115.32 122.03 1147.77 110.25 1476.53 61.23C1531.22 53.08 1740.35 18.57 1988.97 -31.13C2049.6 -43.25 2080.32 -49.88 2079.84 -54.96C2078.41 -70.26 1795.85 -62.52 1518.24 -31.13C1457.81 -24.29 1385.41 -16.11 1290.32 0.150009C1068.14 38.14 633.04 116.96 454.62 363.63Z" fill="white"/>
</mask>
<g mask="url(#mask0_1_2)">
<path d="M733.95 138.08C735.84 141.58 652.2 179.24 599.69 272.15C591.78 286.14 559 332.48 579.33 361.2C587 368.5 592.73 370.435 612.5 368.5C665.94 363.27 701.64 344.95 738.72 332.48C795.21 313.49 837.34 303 843.5 319.5C849.66 336 822 368.5 812 384.5C802.536 399.642 782.144 445 776.5 461.5C766.238 491.5 755.67 510.12 765.53 554.44C766.51 558.84 781.01 620.41 825.86 647.54C912.96 700.24 1057.83 588.8 1062.72 596.89C1069.53 608.18 834.19 902.46 574.11 828.53C404.87 780.42 269.18 588.84 301.25 426.92C347.39 194.05 729.41 129.72 733.93 138.08H733.95Z" fill="#3F5DBC" fill-opacity="0.6"/>
</g>
<path d="M454.62 363.63C445.27 376.56 387.72 457.57 412.91 493.23C432.27 520.64 482.36 495.58 559.86 530.27C605.83 550.85 634.17 580.34 640.25 586.66C698.08 646.71 702.47 719.84 717.8 717.67C725.94 716.52 727.79 695.45 732.56 672.98C740.79 634.14 758.95 601.73 795.26 536.92C909.73 332.63 970.92 223.72 1073.33 151.6C1115.32 122.03 1147.77 110.25 1476.53 61.23C1531.22 53.08 1740.35 18.57 1988.97 -31.13C2049.6 -43.25 2080.32 -49.88 2079.84 -54.96C2078.41 -70.26 1795.85 -62.52 1518.24 -31.13C1457.81 -24.29 1385.41 -16.11 1290.32 0.150009C1068.14 38.14 633.04 116.96 454.62 363.63Z" fill="url(#paint0_radial_1_2)"/>
</g>
<defs>
<radialGradient id="paint0_radial_1_2" cx="0" cy="0" r="1" gradientUnits="userSpaceOnUse" gradientTransform="translate(558.5 400.5) rotate(-25.996) scale(427.781 427.781)">
<stop stop-color="#0B0A1F" stop-opacity="0"/>
<stop offset="0.57269" stop-color="#1E1B52" stop-opacity="0"/>
<stop offset="1" stop-color="#3F5DBC" stop-opacity="0.6"/>
</radialGradient>
<clipPath id="clip0_1_2">
<rect width="1080" height="1080" fill="white"/>
</clipPath>
</defs>
</svg>
